<?xml version="1.0" encoding="UTF-8"?>
            <svg xmlns="http://www.w3.org/2000/svg" version="1.1" width="160" height="46" viewBox="0 0 45 13">
            <rect x="0" y="0" width="45" height="13" fill="#ffffffff"/>
            <path fill="#000000ff" transform="translate(1,1)" fill-rule="evenodd" d="M34 5v1h1v1h-1v1h-1v-1h-1v-1h-1v-3h-1v2h-1v-1h-1v-1h1v-2h1v-1h1v2h1v-2h1v1h1v-1h1v2h-2v2h-1v1ZM35 2h1v1h-1ZM6 6v-5h-5v5ZM33 9h1v1h-1ZM19 7v1h4v-1ZM9 8v-1h2v-1h-1v-1h3v1h-1v2h1v3h-1v-2h-2v-1ZM13 2h2v3h-2ZM20 9h-4v1h-1v1h-1v-2h1v-2h1v1h1v-2h1v-2h-2v-1h2v-1h-3v-1h1v-1h1v1h1v-1h1v3h1v1h-1v1h1v1h2v-1h-1v-1h1v-1h-2v-3h3v2h1v1h1v1h1v2h-1v1h-1v1h1v3h-1v-2h-1v2h-3ZM28 10h1v1h-1ZM33 10v1h-1v-1ZM36 11v-1h1v1ZM36 3h1v1h-1ZM36 10h-1v-2h1ZM34 11v-1h1v1ZM30 9v-3h1v3h1v1h-1v1h-1v-1h-1v-1ZM0 0h7v7h-7ZM2 5v-3h3v3ZM11 10v1h-1v-1ZM40 8h1v1h-1ZM12 4h-1v-1h-1v-1h2ZM42 1h-1v1h-1v-2h3v3h-1v1h1v1h-3v-1h-1v2h4v5h-5v-2h-1v-2h-1v-1h2v-1h-1v-1h1v-1h1v-1h1v1h1v-1h1ZM14 0h1v1h-1ZM27 6v1h1v1h-3v-1h1v-1ZM42 7h-3v3h3ZM19 10v1h-1v-1ZM36 4v1h-2v-1ZM27 0v1h-1v-1ZM4 8h2v1h1v-1h1v2h-1v1h-1v-1h-1v-1h-1ZM28 0h1v1h-1ZM21 2h1v-1h-1ZM22 9h-1v1h1ZM9 3h1v1h-1ZM4 11v-1h1v1ZM26 11v-2h2v1h-1v1ZM8 2v-2h1v2ZM37 0v1h-1v-1ZM9 5v2h-1v-2ZM8 10h1v1h-1ZM1 10h1v-1h1v2h-3v-3h2v1h-1ZM11 0v1h-1v-1ZM23 6h1v-2h-1ZM39 1h-1v-1h1ZM13 2h-1v-2h1ZM16 11v-1h1v1ZM25 3v-2h1v1h1v2h-1v-1ZM24 1v-1h1v1Z"/>
            </svg>